<svg id="visual" viewBox="0 0 1920 925" width="1920" height="925" xmlns="http://www.w3.org/2000/svg" xmlns:xlink="http://www.w3.org/1999/xlink" version="1.1"><rect x="0" y="0" width="1920" height="925" fill="#001220"></rect><path d="M0 609L45.7 614.5C91.3 620 182.7 631 274.2 640.3C365.7 649.7 457.3 657.3 548.8 655.8C640.3 654.3 731.7 643.7 823 646.2C914.3 648.7 1005.7 664.3 1097 672.2C1188.3 680 1279.7 680 1371.2 665.5C1462.7 651 1554.3 622 1645.8 604.8C1737.3 587.7 1828.7 582.3 1874.3 579.7L1920 577L1920 926L1874.3 926C1828.7 926 1737.3 926 1645.8 926C1554.3 926 1462.7 926 1371.2 926C1279.7 926 1188.3 926 1097 926C1005.7 926 914.3 926 823 926C731.7 926 640.3 926 548.8 926C457.3 926 365.7 926 274.2 926C182.7 926 91.3 926 45.7 926L0 926Z" fill="#0b1169"></path><path d="M0 693L45.7 695.2C91.3 697.3 182.7 701.7 274.2 695.2C365.7 688.7 457.3 671.3 548.8 655.7C640.3 640 731.7 626 823 625.8C914.3 625.7 1005.7 639.3 1097 654.2C1188.3 669 1279.7 685 1371.2 696.7C1462.7 708.3 1554.3 715.7 1645.8 700C1737.3 684.3 1828.7 645.7 1874.3 626.3L1920 607L1920 926L1874.3 926C1828.7 926 1737.3 926 1645.8 926C1554.3 926 1462.7 926 1371.2 926C1279.7 926 1188.3 926 1097 926C1005.7 926 914.3 926 823 926C731.7 926 640.3 926 548.8 926C457.3 926 365.7 926 274.2 926C182.7 926 91.3 926 45.7 926L0 926Z" fill="#510b70"></path><path d="M0 710L45.7 709C91.3 708 182.7 706 274.2 712C365.7 718 457.3 732 548.8 744.2C640.3 756.3 731.7 766.7 823 763.2C914.3 759.7 1005.7 742.3 1097 744.2C1188.3 746 1279.7 767 1371.2 776.7C1462.7 786.3 1554.3 784.7 1645.8 767.2C1737.3 749.7 1828.7 716.3 1874.3 699.7L1920 683L1920 926L1874.3 926C1828.7 926 1737.3 926 1645.8 926C1554.3 926 1462.7 926 1371.2 926C1279.7 926 1188.3 926 1097 926C1005.7 926 914.3 926 823 926C731.7 926 640.3 926 548.8 926C457.3 926 365.7 926 274.2 926C182.7 926 91.3 926 45.7 926L0 926Z" fill="#7e0371"></path><path d="M0 790L45.7 783.3C91.3 776.7 182.7 763.3 274.2 765.3C365.7 767.3 457.3 784.7 548.8 783.5C640.3 782.3 731.7 762.7 823 757.2C914.3 751.7 1005.7 760.3 1097 766C1188.3 771.7 1279.7 774.3 1371.2 773.5C1462.7 772.7 1554.3 768.3 1645.8 774.3C1737.3 780.3 1828.7 796.7 1874.3 804.8L1920 813L1920 926L1874.3 926C1828.7 926 1737.3 926 1645.8 926C1554.3 926 1462.7 926 1371.2 926C1279.7 926 1188.3 926 1097 926C1005.7 926 914.3 926 823 926C731.7 926 640.3 926 548.8 926C457.3 926 365.7 926 274.2 926C182.7 926 91.3 926 45.7 926L0 926Z" fill="#a50a6e"></path><path d="M0 852L45.7 849.3C91.3 846.7 182.7 841.3 274.2 836C365.7 830.7 457.3 825.3 548.8 825.7C640.3 826 731.7 832 823 834.7C914.3 837.3 1005.7 836.7 1097 840C1188.3 843.3 1279.7 850.7 1371.2 851.5C1462.7 852.3 1554.3 846.7 1645.8 844.7C1737.3 842.7 1828.7 844.3 1874.3 845.2L1920 846L1920 926L1874.3 926C1828.7 926 1737.3 926 1645.8 926C1554.3 926 1462.7 926 1371.2 926C1279.7 926 1188.3 926 1097 926C1005.7 926 914.3 926 823 926C731.7 926 640.3 926 548.8 926C457.3 926 365.7 926 274.2 926C182.7 926 91.3 926 45.7 926L0 926Z" fill="#c62368"></path></svg>